<svg xmlns="http://www.w3.org/2000/svg" width="96" height="96" viewBox="0 0 96 96" role="img" aria-label="BTC Option Board logo">
  <defs>
    <linearGradient id="bg" x1="18" y1="10" x2="80" y2="86" gradientUnits="userSpaceOnUse">
      <stop stop-color="#F7931A"/>
      <stop offset="0.55" stop-color="#07884F"/>
      <stop offset="1" stop-color="#1E6BD6"/>
    </linearGradient>
    <filter id="shadow" x="-20%" y="-20%" width="140%" height="140%">
      <feDropShadow dx="0" dy="6" stdDeviation="8" flood-color="#0F172A" flood-opacity="0.18"/>
    </filter>
  </defs>
  <rect x="8" y="8" width="80" height="80" rx="18" fill="url(#bg)" filter="url(#shadow)"/>
  <path d="M28 60C35 47 42 36 52 36C61 36 66 44 70 58" fill="none" stroke="#FFFFFF" stroke-width="6" stroke-linecap="round"/>
  <path d="M26 62H72" stroke="#FFFFFF" stroke-width="5" stroke-linecap="round" opacity="0.78"/>
  <path d="M37 25V70" stroke="#FFFFFF" stroke-width="5" stroke-linecap="round"/>
  <path d="M37 27H52C60 27 65 31 65 37C65 42 61 45 56 46C63 47 68 51 68 58C68 65 62 69 53 69H37" fill="none" stroke="#FFFFFF" stroke-width="5" stroke-linecap="round" stroke-linejoin="round"/>
  <path d="M30 33H24M30 61H24M50 22V16M58 22V16" stroke="#FFFFFF" stroke-width="4" stroke-linecap="round" opacity="0.72"/>
</svg>
